<svg xmlns="http://www.w3.org/2000/svg" width="117" height="40" viewBox="0 0 117 40">
    <g fill="none" fill-rule="evenodd">
        <rect width="117" height="40" fill="#86939E" rx="6"/>
        <g fill="#FFF">
            <path d="M24.518 19.409c-.026-2.86 2.34-4.25 2.447-4.316-1.34-1.954-3.415-2.221-4.145-2.242-1.743-.184-3.435 1.044-4.323 1.044-.906 0-2.274-1.027-3.748-.996-1.897.029-3.671 1.128-4.645 2.835-2.008 3.48-.51 8.595 1.414 11.408.963 1.378 2.088 2.916 3.56 2.862 1.44-.06 1.979-.919 3.717-.919 1.722 0 2.228.92 3.73.884 1.545-.024 2.519-1.383 3.448-2.774 1.112-1.579 1.559-3.134 1.577-3.214-.037-.012-3.003-1.145-3.032-4.572zM21.681 11c.775-.97 1.305-2.289 1.158-3.628-1.121.05-2.524.777-3.331 1.725-.715.836-1.353 2.206-1.188 3.494 1.26.094 2.553-.636 3.361-1.591zM45.364 29.806h-2.013l-1.103-3.468h-3.832l-1.05 3.468h-1.96L39.202 18h2.345l3.816 11.806zm-3.448-4.923L40.92 21.8c-.106-.315-.303-1.056-.595-2.224h-.035a85.892 85.892 0 0 1-.56 2.224l-.98 3.083h3.167zM55.13 25.445c0 1.448-.39 2.592-1.173 3.432-.7.748-1.57 1.122-2.607 1.122-1.12 0-1.926-.403-2.416-1.209h-.035v4.485h-1.89v-9.18c0-.91-.024-1.844-.07-2.802H48.6l.105 1.35h.036c.63-1.017 1.586-1.525 2.87-1.525 1.003 0 1.841.397 2.511 1.19.672.796 1.007 1.84 1.007 3.137zm-1.925.07c0-.83-.186-1.513-.56-2.05-.409-.56-.958-.841-1.646-.841-.466 0-.89.156-1.268.464-.38.31-.628.716-.744 1.218a2.478 2.478 0 0 0-.088.576v1.42c0 .62.19 1.142.57 1.568.379.427.872.64 1.478.64.712 0 1.266-.275 1.662-.823.397-.55.596-1.273.596-2.173zM64.914 25.445c0 1.448-.391 2.592-1.174 3.432-.7.748-1.569 1.122-2.607 1.122-1.12 0-1.925-.403-2.414-1.209h-.036v4.485h-1.89v-9.18c0-.91-.024-1.844-.07-2.802h1.662l.106 1.35h.035c.63-1.017 1.586-1.525 2.87-1.525 1.003 0 1.84.397 2.513 1.19.669.796 1.005 1.84 1.005 3.137zm-1.925.07c0-.83-.187-1.513-.562-2.05-.408-.56-.955-.841-1.644-.841-.467 0-.89.156-1.27.464-.379.31-.626.716-.742 1.218a2.527 2.527 0 0 0-.088.576v1.42c0 .62.19 1.142.567 1.568.38.426.873.64 1.48.64.713 0 1.267-.275 1.663-.823.397-.55.596-1.273.596-2.173zM75.853 26.495c0 1.005-.349 1.822-1.048 2.452-.769.69-1.839 1.034-3.214 1.034-1.269 0-2.287-.245-3.057-.735l.438-1.577c.83.502 1.74.754 2.732.754.712 0 1.266-.161 1.664-.482.396-.322.594-.753.594-1.29 0-.48-.163-.883-.49-1.21-.326-.328-.87-.632-1.628-.913-2.065-.771-3.097-1.9-3.097-3.386 0-.97.362-1.766 1.086-2.385.721-.62 1.684-.93 2.888-.93 1.073 0 1.965.187 2.677.56l-.473 1.542c-.664-.362-1.416-.543-2.257-.543-.665 0-1.185.165-1.557.491a1.402 1.402 0 0 0-.472 1.07c0 .466.18.852.541 1.155.315.28.887.584 1.716.911 1.015.41 1.76.887 2.24 1.436.478.546.717 1.23.717 2.046zM82.101 22.712h-2.083v4.134c0 1.051.367 1.576 1.103 1.576.337 0 .618-.029.84-.088l.052 1.437c-.373.14-.863.21-1.47.21-.747 0-1.33-.229-1.75-.684-.42-.456-.631-1.22-.631-2.295V22.71H76.92v-1.42h1.24v-1.559l1.857-.56v2.12h2.083v1.42zM91.5 25.48c0 1.308-.374 2.382-1.12 3.223-.783.865-1.822 1.296-3.117 1.296-1.248 0-2.242-.415-2.983-1.243-.741-.829-1.112-1.875-1.112-3.135 0-1.32.382-2.4 1.147-3.24.763-.841 1.793-1.262 3.088-1.262 1.248 0 2.252.414 3.01 1.244.725.805 1.087 1.843 1.087 3.117zm-1.96.06c0-.784-.168-1.458-.508-2.02-.396-.679-.962-1.018-1.696-1.018-.76 0-1.337.34-1.733 1.019-.34.562-.507 1.246-.507 2.055 0 .785.167 1.459.507 2.02.408.679.98 1.018 1.716 1.018.721 0 1.288-.346 1.696-1.036.349-.573.524-1.253.524-2.037zM97.643 22.956a3.279 3.279 0 0 0-.596-.052c-.664 0-1.179.251-1.54.754-.315.444-.473 1.004-.473 1.681v4.467h-1.889l.018-5.832c0-.981-.024-1.875-.07-2.68h1.645l.07 1.629h.052c.2-.56.514-1.01.945-1.349a2.284 2.284 0 0 1 1.366-.456c.174 0 .332.013.472.035v1.803zM106.095 25.147c0 .339-.022.624-.069.858h-5.67c.023.84.297 1.484.823 1.928.478.396 1.096.595 1.855.595.84 0 1.605-.134 2.294-.403l.296 1.313c-.805.351-1.755.526-2.852.526-1.319 0-2.354-.388-3.108-1.165-.751-.776-1.128-1.818-1.128-3.126 0-1.284.35-2.353 1.051-3.205.734-.91 1.726-1.366 2.974-1.366 1.226 0 2.154.455 2.784 1.366.5.723.75 1.617.75 2.679zm-1.802-.49c.013-.561-.11-1.046-.367-1.455-.327-.526-.83-.789-1.506-.789-.618 0-1.12.257-1.504.771-.315.41-.502.9-.56 1.471h3.937v.001zM41.291 10.737c0 1.044-.313 1.83-.938 2.358-.579.487-1.401.73-2.467.73-.528 0-.98-.022-1.359-.069V8.051a10.02 10.02 0 0 1 1.6-.12c1.015 0 1.78.22 2.296.662.578.5.868 1.214.868 2.144zm-.98.025c0-.677-.178-1.196-.537-1.558-.358-.36-.88-.542-1.57-.542-.292 0-.541.02-.748.06v4.338a4.9 4.9 0 0 0 .628.026c.71 0 1.26-.198 1.646-.594.387-.395.582-.972.582-1.73zM46.485 11.649c0 .643-.184 1.17-.55 1.583-.385.425-.895.637-1.532.637-.613 0-1.101-.203-1.466-.611-.363-.407-.545-.921-.545-1.54 0-.648.187-1.18.563-1.592.376-.412.881-.62 1.518-.62.613 0 1.106.204 1.479.611.355.396.533.907.533 1.532zm-.964.03c0-.386-.083-.717-.249-.993-.195-.334-.472-.5-.833-.5-.373 0-.657.166-.852.5-.167.276-.25.612-.25 1.01 0 .385.084.716.25.992.201.334.481.5.843.5.355 0 .633-.169.833-.509.172-.28.258-.614.258-1zM53.449 9.592l-1.308 4.182h-.85l-.542-1.816c-.138-.453-.25-.904-.336-1.351h-.017c-.08.46-.193.91-.336 1.351l-.575 1.816h-.861l-1.23-4.182h.955l.472 1.988c.115.47.209.918.284 1.343h.017c.07-.35.183-.795.345-1.334l.593-1.996h.757l.568 1.954c.137.476.25.935.335 1.376h.026c.063-.43.158-.889.283-1.376l.508-1.954h.912zM58.265 13.774h-.93V11.38c0-.738-.28-1.107-.841-1.107a.838.838 0 0 0-.671.304 1.08 1.08 0 0 0-.258.717v2.48h-.93v-2.986c0-.367-.01-.766-.033-1.197h.816l.044.654h.025c.109-.203.27-.37.482-.505a1.57 1.57 0 0 1 .842-.235c.39 0 .714.126.972.38.321.309.482.77.482 1.385v2.505zM60.827 13.774h-.929v-6.1h.929zM66.296 11.649c0 .643-.184 1.17-.55 1.583-.385.425-.896.637-1.531.637-.615 0-1.103-.203-1.467-.611-.363-.407-.545-.921-.545-1.54 0-.648.187-1.18.563-1.592.376-.412.881-.62 1.517-.62.614 0 1.106.204 1.48.611.355.396.533.907.533 1.532zm-.965.03c0-.386-.083-.717-.249-.993-.194-.334-.472-.5-.832-.5-.374 0-.658.166-.852.5-.167.276-.249.612-.249 1.01 0 .385.083.716.25.992.2.334.48.5.842.5.355 0 .632-.169.832-.509.173-.28.258-.614.258-1zM70.792 13.774h-.834l-.07-.482h-.025c-.286.385-.692.577-1.22.577-.395 0-.714-.127-.955-.379a1.188 1.188 0 0 1-.327-.851c0-.511.213-.9.641-1.17.428-.27 1.029-.402 1.802-.396v-.078c0-.551-.289-.826-.867-.826-.413 0-.776.104-1.09.31l-.189-.611c.389-.24.868-.361 1.434-.361 1.092 0 1.64.577 1.64 1.73v1.54c0 .418.02.75.06.997zm-.965-1.437v-.645c-1.024-.018-1.537.264-1.537.843 0 .218.059.381.179.49a.65.65 0 0 0 .453.164.938.938 0 0 0 .569-.194.792.792 0 0 0 .336-.658zM76.07 13.774h-.824l-.043-.671h-.026c-.263.51-.712.766-1.342.766-.503 0-.923-.198-1.255-.593-.333-.396-.498-.91-.498-1.54 0-.677.18-1.226.541-1.644.35-.39.78-.586 1.29-.586.561 0 .954.189 1.177.568h.018v-2.4h.93v4.974c0 .407.01.782.033 1.126zm-.962-1.763v-.698a1.06 1.06 0 0 0-.362-.856.913.913 0 0 0-.621-.228.953.953 0 0 0-.817.414c-.198.275-.298.628-.298 1.058 0 .413.095.749.285 1.007a.956.956 0 0 0 .812.412.895.895 0 0 0 .734-.344c.18-.212.267-.467.267-.765zM84.016 11.649c0 .643-.184 1.17-.55 1.583-.385.425-.894.637-1.531.637-.613 0-1.101-.203-1.467-.611-.363-.407-.545-.921-.545-1.54 0-.648.187-1.18.563-1.592.376-.412.881-.62 1.519-.62.612 0 1.106.204 1.478.611.355.396.533.907.533 1.532zm-.963.03c0-.386-.083-.717-.249-.993-.196-.334-.472-.5-.834-.5-.372 0-.656.166-.852.5-.167.276-.249.612-.249 1.01 0 .385.083.716.25.992.2.334.48.5.842.5.355 0 .634-.169.834-.509.171-.28.258-.614.258-1zM89.011 13.774h-.928V11.38c0-.738-.28-1.107-.843-1.107a.835.835 0 0 0-.67.304 1.076 1.076 0 0 0-.258.717v2.48h-.93v-2.986c0-.367-.01-.766-.033-1.197h.816l.043.654h.026c.109-.203.27-.37.481-.505.253-.156.534-.235.843-.235.39 0 .714.126.972.38.321.309.481.77.481 1.385v2.505zM95.263 10.289H94.24v2.031c0 .516.182.775.542.775.166 0 .305-.015.414-.044l.024.705c-.184.07-.425.104-.722.104-.367 0-.652-.112-.859-.335-.207-.224-.31-.6-.31-1.128V10.29h-.61v-.697h.61v-.766l.91-.275v1.04h1.023v.698h.001zM100.181 13.774h-.93v-2.377c0-.75-.28-1.125-.841-1.125-.43 0-.725.217-.887.652a1.17 1.17 0 0 0-.043.334v2.515h-.928v-6.1h.928v2.52h.018c.292-.458.712-.687 1.255-.687.385 0 .703.126.956.379.314.315.472.783.472 1.402v2.487zM105.254 11.485c0 .167-.012.307-.034.422h-2.787c.013.413.146.728.404.946.236.196.54.293.912.293.412 0 .788-.066 1.127-.198l.145.646c-.396.172-.863.258-1.402.258-.647 0-1.157-.19-1.526-.572-.37-.381-.554-.893-.554-1.536 0-.63.171-1.156.516-1.574.36-.447.847-.671 1.46-.671.602 0 1.058.224 1.367.67.249.356.372.795.372 1.316zm-.886-.24a1.253 1.253 0 0 0-.18-.714c-.162-.258-.407-.388-.74-.388a.882.882 0 0 0-.739.379 1.408 1.408 0 0 0-.276.723h1.935z"/>
        </g>
    </g>
</svg>
