<?xml version="1.0" encoding="UTF-8"?>
<svg width="141px" height="24px" viewBox="0 0 141 24" version="1.1" xmlns="http://www.w3.org/2000/svg" xmlns:xlink="http://www.w3.org/1999/xlink">
    <!-- Generator: Sketch 51 (57462) - http://www.bohemiancoding.com/sketch -->
    <title>Group</title>
    <desc>Created with Sketch.</desc>
    <defs></defs>
    <g id="Page-1" stroke="none" stroke-width="1" fill="none" fill-rule="evenodd">
        <g id="Terms-of-Service" transform="translate(-226.000000, -83.000000)">
            <rect fill="#FFFFFF" x="0" y="0" width="1440" height="2414"></rect>
            <g id="Headers/Header-#1">
                <g id="Group" transform="translate(226.000000, 83.000000)">
                    <path d="M85.8484701,23 L85.8484701,0.587890625 L90.9168294,0.587890625 L90.9168294,9.40625 L91.1951498,9.40625 C91.9129232,7.53125 93.7293294,6.38867188 96.0730794,6.38867188 C99.6180013,6.38867188 101.654134,8.57128906 101.654134,12.5263672 L101.654134,23 L96.4832357,23 L96.4832357,13.6982422 C96.4832357,11.6767578 95.5603841,10.6074219 93.8465169,10.6074219 C92.074056,10.6074219 91.0193685,11.8818359 91.0193685,13.7568359 L91.0193685,23 L85.8484701,23 Z" id="Path" fill="#FF9901"></path>
                    <path d="M120.303223,6.69628906 L120.303223,23 L115.26416,23 L115.26416,20.3632812 L114.98584,20.3632812 C114.224121,22.2822266 112.817871,23.3808594 110.356934,23.3808594 C106.899902,23.3808594 104.570801,21.1103516 104.570801,17.3457031 L104.570801,6.69628906 L109.741699,6.69628906 L109.741699,16.0712891 C109.741699,18.0634766 110.723144,19.1181641 112.393066,19.1181641 C114.165527,19.1181641 115.117676,17.9169922 115.117676,16.0126953 L115.117676,6.69628906 L120.303223,6.69628906 Z" id="Path" fill="#FF9901"></path>
                    <path d="M133.8986,23.2490234 C131.584147,23.2490234 129.753092,22.2089844 128.976725,20.4511719 L128.698405,20.4511719 L128.698405,23 L123.659342,23 L123.659342,0.587890625 L128.830241,0.587890625 L128.830241,9.31835938 L129.108561,9.31835938 C129.899577,7.50195313 131.657389,6.44726563 133.8986,6.44726563 C138.02946,6.44726563 140.402506,9.5234375 140.402506,14.8408203 C140.402506,20.1289062 137.985514,23.2490234 133.8986,23.2490234 Z M131.965006,10.5195312 C130.031413,10.5195312 128.815592,12.1894531 128.800944,14.8554688 C128.815592,17.5214844 130.016764,19.1767578 131.965006,19.1767578 C133.8986,19.1767578 135.085124,17.5214844 135.085124,14.8408203 C135.085124,12.1894531 133.883952,10.5195312 131.965006,10.5195312 Z" id="Combined-Shape" fill="#FF9901"></path>
                    <path d="M0.778483256,1.86230469 L9.59684263,1.86230469 C13.9474286,1.86230469 16.9210614,4.77734375 16.9210614,9.171875 C16.9210614,13.5224609 13.8302411,16.4375 9.37711607,16.4375 L5.20231138,16.4375 L5.20231138,23 L0.778483256,23 L0.778483256,1.86230469 Z M5.20231138,5.49511719 L5.20231138,12.8486328 L8.41031919,12.8486328 C10.9444989,12.8486328 12.4239911,11.5595703 12.4239911,9.18652344 C12.4239911,6.78417969 10.9737958,5.49511719 8.42496763,5.49511719 L5.20231138,5.49511719 Z M20.04834,23 L20.04834,0.67578125 L24.2377931,0.67578125 L24.2377931,9.49414062 L24.501465,9.49414062 C25.2485353,7.6484375 27.0063478,6.53515625 29.3793947,6.53515625 C32.8510744,6.53515625 34.9165041,8.71777344 34.9165041,12.5996094 L34.9165041,23 L30.6538087,23 L30.6538087,13.6103516 C30.6538087,11.3691406 29.6137697,10.2119141 27.6801759,10.2119141 C25.5415041,10.2119141 24.3110353,11.6328125 24.3110353,13.7275391 L24.3110353,23 L20.04834,23 Z M45.5437827,23.3515625 C40.5779624,23.3515625 37.5896811,20.2021484 37.5896811,14.9140625 C37.5896811,9.68457031 40.6219077,6.49121094 45.5437827,6.49121094 C50.4656577,6.49121094 53.4978842,9.66992188 53.4978842,14.9140625 C53.4978842,20.2021484 50.509603,23.3515625 45.5437827,23.3515625 Z M45.5437827,19.8652344 C47.8142905,19.8652344 49.1180014,18.0488281 49.1180014,14.9140625 C49.1180014,11.8085938 47.799642,9.97753906 45.5437827,9.97753906 C43.2732749,9.97753906 41.9695639,11.8085938 41.9695639,14.9140625 C41.9695639,18.0634766 43.2586264,19.8652344 45.5437827,19.8652344 Z M57.5187175,3.00488281 L61.7814128,3.00488281 L61.7814128,7.00390625 L65.135905,7.00390625 L65.135905,10.3583984 L61.7814128,10.3583984 L61.7814128,17.6240234 C61.7814128,19.0302734 62.4259441,19.6748047 63.8761394,19.6748047 C64.43278,19.6748047 64.7257488,19.6601562 65.135905,19.6162109 L65.135905,22.8681641 C64.6085613,22.9707031 63.8175457,23.0585938 62.9972332,23.0585938 C59.0714519,23.0585938 57.5187175,21.7841797 57.5187175,18.6347656 L57.5187175,10.3583984 L54.9991863,10.3583984 L54.9991863,7.00390625 L57.5187175,7.00390625 L57.5187175,3.00488281 Z M75.0600586,23.3515625 C70.0942383,23.3515625 67.1059571,20.2021484 67.1059571,14.9140625 C67.1059571,9.68457031 70.1381836,6.49121094 75.0600586,6.49121094 C79.9819336,6.49121094 83.0141602,9.66992188 83.0141602,14.9140625 C83.0141602,20.2021484 80.025879,23.3515625 75.0600586,23.3515625 Z M75.0600586,19.8652344 C77.3305665,19.8652344 78.6342774,18.0488281 78.6342774,14.9140625 C78.6342774,11.8085938 77.315918,9.97753906 75.0600586,9.97753906 C72.7895508,9.97753906 71.4858399,11.8085938 71.4858399,14.9140625 C71.4858399,18.0634766 72.7749024,19.8652344 75.0600586,19.8652344 Z" id="Photohub" fill="#FFFFFF"></path>
                </g>
            </g>
        </g>
    </g>
</svg>