<svg xmlns="http://www.w3.org/2000/svg" width="100" height="100" viewBox="0 0 100 100">
    <g fill="none" fill-rule="evenodd">
        <path fill="#000" d="M0 0h100v100H0z"/>
        <path fill="#FFF" d="M49.948 18.434v14.328H64.24L49.948 18.434m-25.941 27.33c-.09 3.639 2.797 7.265 7.185 7.3 4.288.032 7.355-3.379 7.34-7.307-.013-4.008-3.103-7.323-7.28-7.3-4.76.025-7.352 3.948-7.245 7.306M15.43 73.65V20.981c.056-.191.139-.379.166-.574a5.606 5.606 0 0 1 4.075-4.668c.426-.117.86-.207 1.29-.31h33.05c.12.16.225.334.364.474 4.113 4.132 8.235 8.257 12.334 12.404.25.253.442.688.445 1.04.032 3.744.007 7.488.033 11.232.005.617-.152.807-.787.804-5.439-.026-10.878-.016-16.316-.012-.38 0-.77 0-1.14.076-2.95.601-4.824 2.92-4.83 5.965-.005 3.09.012 6.181-.013 9.271a1.827 1.827 0 0 1-.345 1.033c-1.293 1.675-2.625 3.321-3.946 4.975-.443.554-.892 1.104-1.51 1.869l-5.67-5.86-8.71 11.67c.513.023.816.049 1.12.05 6.135.003 12.27.01 18.405-.003.536-.002.687.164.681.697-.027 2.368-.03 4.737.002 7.105.007.562-.189.672-.7.671-7.417-.015-14.833-.008-22.25-.013a5.666 5.666 0 0 1-5.519-4.4c-.065-.278-.152-.552-.23-.828" opacity=".54"/>
        <path fill="#F90" d="M66.912 84.57c-.515-.149-1.03-.302-1.546-.446-4.485-1.256-8.48-3.35-11.62-6.847-2.218-2.469-3.652-5.343-3.743-8.683-.137-5.059-.107-10.123-.142-15.184-.011-1.756-.003-3.511-.002-5.267 0-.932.003-.938.906-.938 9.299 0 18.598.004 27.897 0 1.966 0 3.933-.03 5.9-.045v20.664c0 2.729-1.265 5.89-2.846 8.088-2.736 3.804-6.57 6.097-10.907 7.652-1.097.393-2.235.674-3.354 1.006h-.543z"/>
        <path fill="#000" d="M65.134 67.67v6.874h-4.781V53.98h7.27c1.452 0 2.7.171 3.741.515 1.042.343 1.9.816 2.575 1.418a5.53 5.53 0 0 1 1.492 2.131c.32.819.48 1.703.48 2.654 0 1.025-.164 1.966-.494 2.823a5.664 5.664 0 0 1-1.514 2.201c-.679.612-1.54 1.09-2.581 1.433-1.042.343-2.275.515-3.699.515h-2.49zm0-3.599h2.49c1.244 0 2.14-.296 2.687-.89.546-.592.82-1.42.82-2.483 0-.47-.07-.899-.212-1.285a2.613 2.613 0 0 0-.644-.995 2.895 2.895 0 0 0-1.089-.642c-.438-.15-.96-.226-1.563-.226h-2.49v6.521z"/>
    </g>
</svg>
