<svg xmlns="http://www.w3.org/2000/svg" width="171" height="18" viewBox="0 0 171 18">
    <path fill="#FFF" fill-rule="evenodd" d="M6.552.346c1.698 0 3.132.577 4.302 1.73 1.17 1.155 1.756 2.556 1.756 4.204 0 1.649-.585 3.05-1.756 4.204-1.17 1.153-2.604 1.73-4.302 1.73H3.956v5.44H0V.346h6.552zm0 8.16c.61 0 1.113-.215 1.508-.643.396-.429.594-.956.594-1.583 0-.626-.198-1.154-.594-1.582-.395-.429-.898-.643-1.508-.643H3.956v4.45h2.596zm21.256 9.148l-3.264-5.687h-1.88v5.687H18.71V.346h6.923c1.648 0 3.05.577 4.203 1.73 1.154 1.155 1.73 2.556 1.73 4.204a5.264 5.264 0 0 1-.877 2.93 6.006 6.006 0 0 1-2.312 2.09l3.684 6.354h-4.252zm-5.143-13.6v4.451h2.967c.544 0 1.01-.214 1.397-.642.387-.429.58-.956.58-1.583 0-.626-.193-1.154-.58-1.582-.388-.429-.853-.643-1.397-.643h-2.967zM46.047 18c-2.506 0-4.632-.865-6.38-2.596-1.747-1.73-2.62-3.866-2.62-6.404s.873-4.673 2.62-6.404C41.416.866 43.542 0 46.048 0c2.505 0 4.632.865 6.379 2.596 1.747 1.73 2.62 3.866 2.62 6.404s-.873 4.673-2.62 6.404C50.679 17.134 48.552 18 46.046 18zm0-3.857c1.434 0 2.633-.478 3.597-1.434.965-.956 1.447-2.193 1.447-3.709s-.482-2.753-1.447-3.709c-.964-.956-2.163-1.434-3.597-1.434-1.434 0-2.634.478-3.598 1.434S41.003 7.484 41.003 9s.482 2.753 1.446 3.709 2.164 1.434 3.598 1.434zM72.025.346v3.808h-4.45v13.5h-3.957v-13.5h-4.45V.346h12.857zm9.807 13.5h6.923v3.808H77.876V.346h10.756v3.808h-6.8v2.868h6.182v3.758h-6.182v3.066zM103.236 18c-2.588 0-4.735-.861-6.44-2.584-1.707-1.722-2.56-3.861-2.56-6.416s.853-4.694 2.56-6.416C98.5.86 100.647 0 103.235 0c1.55 0 2.984.359 4.302 1.076 1.32.717 2.358 1.693 3.116 2.93l-3.412 1.978a3.897 3.897 0 0 0-1.632-1.57c-.709-.371-1.5-.557-2.374-.557-1.533 0-2.757.47-3.671 1.41-.915.939-1.373 2.184-1.373 3.733 0 1.55.458 2.794 1.373 3.734.914.94 2.138 1.409 3.671 1.409.874 0 1.67-.19 2.386-.569.717-.379 1.257-.898 1.62-1.558l3.412 1.979c-.742 1.236-1.772 2.212-3.09 2.93-1.32.716-2.762 1.075-4.328 1.075zM128.25.346v3.808h-4.45v13.5h-3.957v-13.5h-4.45V.346h12.857zM141.37 18c-2.505 0-4.631-.865-6.378-2.596-1.748-1.73-2.621-3.866-2.621-6.404s.873-4.673 2.62-6.404C136.74.866 138.866 0 141.372 0c2.505 0 4.632.865 6.379 2.596 1.747 1.73 2.62 3.866 2.62 6.404s-.873 4.673-2.62 6.404c-1.747 1.73-3.874 2.596-6.38 2.596zm0-3.857c1.435 0 2.634-.478 3.598-1.434.965-.956 1.447-2.193 1.447-3.709s-.482-2.753-1.447-3.709c-.964-.956-2.163-1.434-3.597-1.434-1.434 0-2.633.478-3.598 1.434-.964.956-1.446 2.193-1.446 3.709s.482 2.753 1.446 3.709c.965.956 2.164 1.434 3.598 1.434zm24.446 3.51l-3.264-5.686h-1.879v5.687h-3.956V.346h6.923c1.648 0 3.05.577 4.203 1.73 1.154 1.155 1.731 2.556 1.731 4.204a5.264 5.264 0 0 1-.878 2.93 6.006 6.006 0 0 1-2.311 2.09l3.684 6.354h-4.253zm-5.143-13.598v4.45h2.967c.544 0 1.01-.214 1.397-.642.387-.429.581-.956.581-1.583 0-.626-.194-1.154-.58-1.582-.388-.429-.854-.643-1.398-.643h-2.967z"/>
</svg>
